<?xml version="1.0" encoding="utf-8"?>
<!-- Generator: Adobe Illustrator 15.1.0, SVG Export Plug-In . SVG Version: 6.00 Build 0)  -->
<!DOCTYPE svg PUBLIC "-//W3C//DTD SVG 1.1//EN" "http://www.w3.org/Graphics/SVG/1.1/DTD/svg11.dtd">
<svg version="1.1" id="Layer_1" xmlns="http://www.w3.org/2000/svg" xmlns:xlink="http://www.w3.org/1999/xlink" x="0px" y="0px"
	 width="512px" height="512px" viewBox="0 0 512 512" enable-background="new 0 0 512 512" xml:space="preserve">
<g transform="translate(0.000000,512.000000) scale(0.100000,-0.100000)">
	<path fill="#2E86DE" d="M1533.999,3768.998c-543.999-538.999-995-991.997-1001.997-1006.001
		c-8.003-13.999-11.001-35.996-7.002-50.996c3.999-18.003,342.998-364.004,992.998-1014.004
		c924.004-925,989.004-987.998,1021.001-987.998s60.005,25.996,360.005,322.998c178.994,177.002,630.996,622.998,1002.998,991.006
		C4389.003,2504.999,4580.996,2699.999,4585,2721c4.004,15,2.002,36.001-2.998,46.001c-6.006,10-279.004,282.998-609.004,607.998
		c-328.994,323.999-777.002,766.001-995,982.002c-340,335.996-400.996,392.998-425.996,392.998
		C2526.001,4749.999,2391.001,4618.998,1533.999,3768.998z M3494.004,3667.997c515-505.996,935.996-925.996,935.996-932.998
		c0-16.001-1868.999-1859.004-1888.999-1862.998c-22.002-4.004-1863.999,1838.999-1860,1860.996
		C685,2749.999,2537.002,4589.999,2550,4589.999C2555,4589.999,2980,4174.999,3494.004,3667.997z"/>
	<path fill="#2E86DE" d="M1672.998,3513.998C1203.999,3042.001,820,2651,820,2644.999s17.998-28.999,40-50l41.001-40l823.999,830
		l823.999,830L3372.998,3391l825-823.999l46.006,37.998c25,20,45.996,40,45.996,43.999c0,3.003-385.996,392.002-857.998,863.999
		C2765,4179.999,2569.004,4369.999,2550,4369.999C2530,4371,2356.001,4201,1672.998,3513.998z"/>
	<path fill="#FECA57" d="M2488.999,3632.997c-20-22.998-23.999-228.999-6.997-262.998c16.997-31.001,61.997-38.999,88.994-13.999
		c17.002,15,19.004,31.997,19.004,138.999c0,105-2.002,123.999-17.998,137.998
		C2547.998,3654.999,2506.001,3654.999,2488.999,3632.997z"/>
	<path fill="#FECA57" d="M2032.002,3514.999c-14.004-10-22.002-26.001-22.002-42.998c0-30,91.001-198.003,117.998-219.004
		c35-27.998,92.002-1.997,92.002,41.001c0,21.001-117.998,226.001-130,226.001c-5,0-13.999,2.002-22.002,5
		C2061.001,3527.997,2045,3522.997,2032.002,3514.999z"/>
	<path fill="#FECA57" d="M2977.998,3518.998c-25-13.999-130-196.997-130-225c0-12.998,5-31.001,12.002-38.999
		c17.002-20,62.998-18.999,82.002,2.998c25,27.002,117.998,196.001,117.998,213.003C3060,3507.997,3010,3537.997,2977.998,3518.998z
		"/>
	<path fill="#FECA57" d="M2407.998,3224.999c-97.998-25-176.997-72.002-258.999-153.999
		C2032.998,2954.999,1980,2832.001,1980,2674.999c0-150.996,52.998-275.996,171.001-410c111.001-125,148.999-219.004,148.999-370
		c0-95,18.999-139.004,71.001-167.002c30-15.996,52.998-17.998,186.001-15.996c145.996,2.998,152.002,3.994,178.994,27.998
		c40,37.002,54.004,80,54.004,167.002c0,142.998,35.996,232.002,140.996,348.994c76.006,86.006,126.006,168.008,155,254.004
		c28.008,83.999,26.006,252.998-3.994,342.002C3025,3017.997,2892.002,3151,2724.004,3211
		C2647.998,3238.998,2490,3246,2407.998,3224.999z M2695,3127.997C2839.004,3081,2950,2969.999,3000,2821
		c27.998-83.003,27.002-210-0.996-293.999c-27.002-81.006-49.004-115-131.006-206.006c-112.998-125-167.002-262.998-167.998-425.996
		c0-42.002-5-75.996-12.002-82.998c-17.002-17.002-271.997-17.002-285,0.996c-5.996,6.006-12.998,55-16.997,107.002
		c-10,162.002-48.999,262.998-145,375.996c-128.003,151.006-152.002,195-171.001,322.002C2050,2746,2097.002,2891,2191.001,2993.998
		C2323.999,3139.999,2507.998,3188.998,2695,3127.997z"/>
	<path fill="#FECA57" d="M1677.002,3162.001c-23.003-25-21.001-55,2.998-77.002c32.998-30,192.002-115,215-115
		c12.002,0,30,8.999,40,20c32.998,37.002,11.001,67.998-95,132.002C1738.999,3182.001,1702.998,3191,1677.002,3162.001z"/>
	<path fill="#FECA57" d="M3222.998,3119.999c-98.994-57.998-102.998-62.002-102.998-95c0-36.001,20-55,57.002-55
		c10,0,62.998,26.001,117.998,57.998c92.998,54.004,100,60,102.998,92.002c4.004,37.002-15.996,60-52.002,60
		C3334.004,3179.999,3279.004,3152.997,3222.998,3119.999z"/>
	<path fill="#FECA57" d="M1550,2694.999c-7.002-7.998-12.002-26.001-12.002-40c0-50,14.004-55,152.002-55
		c110,0,128.999,2.002,142.998,17.998c22.002,24.004,21.001,55-0.996,75C1806.001,2717.001,1568.999,2717.997,1550,2694.999z"/>
	<path fill="#FECA57" d="M3242.002,2702.997c-25-10-34.004-52.998-17.002-78.999c15-22.998,20-23.999,144.004-23.999
		c110.996,0,130,2.002,143.994,17.998c22.002,24.004,21.006,55-0.996,75c-15,14.004-40,17.002-137.998,16.001
		C3309.004,2708.998,3249.004,2706,3242.002,2702.997z"/>
	<path fill="#FECA57" d="M1800,2299.999c-117.998-70.996-140-87.998-140-112.998c0-29.004,28.999-57.002,58.999-57.002
		c33.003,0,210,107.998,223.003,135.996c8.999,18.008,6.997,29.004-6.001,49.004C1912.998,2349.999,1877.998,2347.001,1800,2299.999
		z"/>
	<path fill="#FECA57" d="M3132.002,2327.997c-7.002-7.002-12.002-25.996-12.002-43.994c0-34.004,15.996-47.002,150.996-123.008
		c87.002-47.998,129.004-38.994,129.004,26.006c0,30.996-5.996,35.996-102.002,92.998
		C3195.996,2339.003,3155,2350.995,3132.002,2327.997z"/>
	<path fill="#FECA57" d="M2353.999,1624.999c-3.999-7.998-3.999-22.002,0-30c5-12.998,33.003-15,193.003-12.998l187.998,2.998v25v25
		l-187.998,2.998C2387.002,1639.999,2358.999,1637.997,2353.999,1624.999z"/>
	<path fill="#FECA57" d="M2367.998,1512.997c-10.996-2.998-17.998-13.994-17.998-28.994v-24.004h195h195v24.004
		c0,17.998-7.002,25-30.996,30C2674.004,1520.995,2395,1519.999,2367.998,1512.997z"/>
	<path fill="#2E86DE" d="M4397.001,2462.001c-20-21.006-37.002-42.002-37.002-47.998c0-6.006,10.996-21.006,25-34.004
		s25-27.998,25-34.004c0-5.996-415.996-426.992-924.004-935c-751.992-751.992-926.997-921.992-941.997-915.996
		c-21.001,7.998-1815,1842.002-1821.997,1862.998c-2.002,7.002,3.999,22.002,12.998,32.002c17.002,19.004,16.001,20.996-22.002,60
		c-22.998,22.002-45,40-50,40c-5.996,0-30.996-22.002-56.997-50c-63.999-67.998-62.002-85,21.997-172.998
		C752.002,2135.995,2421.001,425.995,2472.002,377.997c90-87.002-17.002-177.998,1105.996,945
		c879.004,879.004,992.002,995,992.002,1022.002c0,24.004-12.998,44.004-62.998,92.998c-34.004,34.004-65,62.002-67.998,62.002
		C4435.996,2499.999,4417.001,2482.997,4397.001,2462.001z"/>
</g>
</svg>
